inDegrees=no
num_controls=7
num_derivatives=13
num_iterations=133
num_multipliers=7
num_parameters=0
num_slacks=7
num_states=26
objective=6.062668
objective_accelerations=1.002513
objective_balance=0.086858
objective_effort=0.696905
objective_height=4.181484
objective_ligament=0.094908
solver_duration=1374.724554
status=Solve_Succeeded
success=true
DataType=double
version=3
OpenSimVersion=4.4-2022-07-23-0e9fedc
endheader
time	/jointset/ground_pelvis/pelvis_tilt/value	/jointset/ground_pelvis/pelvis_tx/value	/jointset/ground_pelvis/pelvis_ty/value	/jointset/hip_l/hip_flexion_l/value	/jointset/hip_l/hip_adduction_l/value	/jointset/hip_l/hip_rotation_l/value	/jointset/back/lumbar_extension/value	/jointset/patellofemoral_l/patellar_flexion_l/value	/jointset/knee_l/knee_flexion_l/value	/jointset/knee_l/knee_adduction_l/value	/jointset/knee_l/knee_rotation_l/value	/jointset/ankle_l/ankle_angle_l/value	/jointset/subtalar_l/subtalar_angle_l/value	/jointset/ground_pelvis/pelvis_tilt/speed	/jointset/ground_pelvis/pelvis_tx/speed	/jointset/ground_pelvis/pelvis_ty/speed	/jointset/hip_l/hip_flexion_l/speed	/jointset/hip_l/hip_adduction_l/speed	/jointset/hip_l/hip_rotation_l/speed	/jointset/back/lumbar_extension/speed	/jointset/patellofemoral_l/patellar_flexion_l/speed	/jointset/knee_l/knee_flexion_l/speed	/jointset/knee_l/knee_adduction_l/speed	/jointset/knee_l/knee_rotation_l/speed	/jointset/ankle_l/ankle_angle_l/speed	/jointset/subtalar_l/subtalar_angle_l/speed	/forceset/tau_hip_flexion_l	/forceset/tau_hip_adduction_l	/forceset/tau_hip_rotation_l	/forceset/tau_knee_flexion_l	/forceset/tau_ankle_angle_l	/forceset/tau_subtalar_angle_l	/forceset/tau_lumbar_extension	lambda_cid13_p0	lambda_cid13_p1	lambda_cid13_p2	lambda_cid13_p3	lambda_cid13_p4	lambda_cid13_p5	lambda_cid14_p0	/jointset/ground_pelvis/pelvis_tilt/accel	/jointset/ground_pelvis/pelvis_tx/accel	/jointset/ground_pelvis/pelvis_ty/accel	/jointset/hip_l/hip_flexion_l/accel	/jointset/hip_l/hip_adduction_l/accel	/jointset/hip_l/hip_rotation_l/accel	/jointset/back/lumbar_extension/accel	/jointset/patellofemoral_l/patellar_flexion_l/accel	/jointset/knee_l/knee_flexion_l/accel	/jointset/knee_l/knee_adduction_l/accel	/jointset/knee_l/knee_rotation_l/accel	/jointset/ankle_l/ankle_angle_l/accel	/jointset/subtalar_l/subtalar_angle_l/accel	gamma_cid13_p0	gamma_cid13_p1	gamma_cid13_p2	gamma_cid13_p3	gamma_cid13_p4	gamma_cid13_p5	gamma_cid14_p0
1.5	-0.08130515315917027	-0.04585318887451303	0.7526660450688246	1.094757984784073	-0.3241257929699078	-0.02959211563290699	-0.8409925259738831	1.166364006234833	1.166364006234689	-0.0471759878786339	-0.1745068587489433	0.2379592332489834	0.05406224473024979	0.4764664649869533	0.223392348862481	0.8654785395317661	-3.092205555319886	0.01418631781538299	-0.874734448869228	0.7883482539360476	-2.982626818612084	-2.982626818612215	-0.2695600783794794	-0.000104724486683907	-0.5588965775336259	-0.2018625754555705	-0.2737123984481018	0.0121788987452795	-0.00728304733623058	-0.2784114841420304	0.07251870488715906	0.0389517326925565	0.3322423150374413	-17.39989000900458	-14.16113311815996	2.135745450996147	-17.95231113367738	-658.4171344401175	-67.19616026554877	-1.609375536786521	0.9563044103037561	1.241909784590377	-1.007222213140212	-1.378564845274155	0.8552949453995355	-0.4309546202556786	2.796063472524163	-1.948318698909711	-1.948318698909689	-0.1415452813586356	0.05555284904140424	-1.570496661543081	0.6043487594746558	7.750548267267132e-07	2.312141465570239e-06	-3.44998729478238e-06	-2.463138418483623e-08	8.444716008034328e-07	-6.223057657016878e-07	8.19965924768545e-07
1.51	-0.07649329637295868	-0.04355726416605409	0.7612685210383157	1.063769588620747	-0.3239430974502613	-0.03836013362344062	-0.8329705626006997	1.136443721373743	1.136443721373721	-0.04988240444517492	-0.1745081268162781	0.2322927352141284	0.05207163282211452	0.4857858096276328	0.2357772730889668	0.8548121899980675	-3.105097645781833	0.02235494472787515	-0.8788279323411541	0.8159728517784609	-3.001027907809007	-3.001027907809203	-0.2717290711108214	-0.0001471172475062668	-0.5742317114334785	-0.1962009175928563	-0.2633302211932965	0.01252072845249945	-0.007579252018903827	-0.2710435454297389	0.07273560990541078	0.03944217292845852	0.3220583734345615	-16.74129612932879	-14.65035094303768	2.397530325208439	-17.91681756814283	-648.9492988387844	-67.14575631539644	-2.266470100908817	0.901960298010088	1.234487730819486	-1.126828669228487	-1.188037339610412	0.7981752043757969	-0.3915819531899371	2.734922601506163	-1.725829376149222	-1.725829376158946	-0.2549289545773815	-0.03449463509110092	-1.489190529490579	0.5558501705434282	7.934129549693999e-07	2.579282878625919e-06	-3.299755645212214e-06	-1.942154047374329e-09	8.887410952932176e-07	-2.991006432977904e-07	8.140991022870501e-07
1.52	-0.07159180397893987	-0.04113794941750293	0.7697582360433216	1.032663570314203	-0.3236786099334454	-0.04716769379719013	-0.8246745003168121	1.106351460551468	1.106351460551582	-0.05261058147615438	-0.1745098906705028	0.2264780520852201	0.05013939266678132	0.4943935865507486	0.2480703568809222	0.8429263466346452	-3.115729983962003	0.0305447172484163	-0.8826428855142275	0.8431680360771632	-3.017022010848557	-3.017022010848817	-0.2739121712643699	-0.0002038818662094581	-0.5885335963446956	-0.1901882248951938	-0.2529480439384815	0.0128625581597696	-0.007875456701727058	-0.2636756067174422	0.07295251492368235	0.03993261316443561	0.3118744318316822	-16.07894500326935	-15.15104808688851	2.673509213624062	-17.96078168724565	-639.4397091711073	-67.20242991371121	-3.028765692796028	0.8139908667905643	1.223541697684639	-1.251120979084887	-0.9266143889187864	0.8595240670093122	-0.3752485604852395	2.710180763781754	-1.466921467435091	-1.466921467435093	-0.144366765800028	0.05267847746513287	-1.363846863815526	0.6745557264643987	8.804851804661725e-07	2.561040425326348e-06	-3.814353380654968e-06	-8.368398108141002e-08	9.994821552481807e-07	-1.920371405113382e-07	8.644379278235536e-07
1.53	-0.06660775965535642	-0.03859630008992586	0.7781231384459425	1.001462336932387	-0.3233324369823803	-0.05601051342559535	-0.816109083419291	1.076111266911598	1.076111266911725	-0.05536253690740098	-0.174511738693358	0.2205254658266559	0.04826856686266065	0.5022854535367214	0.2602300161608492	0.829859059346821	-3.124117656118718	0.03869077528065178	-0.8859236759478633	0.8698145560092434	-3.030593079505035	-3.030593079505061	-0.2764387568128785	-0.0001817693295598429	-0.6018003694146801	-0.183919032673053	-0.2424274669425883	0.01310932581649453	-0.00814988691672208	-0.2566426659023464	0.07314284897111391	0.04006620165081229	0.3014828428740064	-15.46740455452186	-15.4667257607295	2.895836664412238	-17.77381545826009	-630.1849018522505	-66.97691469169827	-3.894305986119831	0.7574117452017861	1.207678263831648	-1.363538195883184	-0.73485761295369	0.7928719945029435	-0.3039001945409769	2.626769494977895	-1.238860605026218	-1.238860604991036	-0.3003771450306729	-0.02655706523111875	-1.280498223155107	0.6121217987089386	1.040566134295411e-06	2.239577614024326e-06	-5.035332337673942e-06	-2.763838063601607e-07	1.180849253509896e-06	-3.146241085684188e-07	9.744952543791795e-07
